/* XPM */
static char * carrier_menu_xpm[] = {
"32 32 264 2",
"  	c None",
". 	c #282500",
"+ 	c #1B1B00",
"@ 	c #161600",
"# 	c #666200",
"$ 	c #737300",
"% 	c #5C5C00",
"& 	c #4D4D00",
"* 	c #4E4E00",
"= 	c #8B7C00",
"- 	c #DAD700",
"; 	c #2B2B00",
"> 	c #383300",
", 	c #F6DE00",
"' 	c #FFFD00",
") 	c #FFFF00",
"! 	c #D7D700",
"~ 	c #504900",
"{ 	c #FFE900",
"] 	c #E6E600",
"^ 	c #202000",
"/ 	c #030300",
"( 	c #080800",
"_ 	c #141400",
": 	c #131300",
"< 	c #483F00",
"[ 	c #EBCE00",
"} 	c #FFF800",
"| 	c #4C4A00",
"1 	c #B49D00",
"2 	c #FFFE00",
"3 	c #D4D400",
"4 	c #909000",
"5 	c #C2C200",
"6 	c #B0B000",
"7 	c #818100",
"8 	c #454500",
"9 	c #060600",
"0 	c #070700",
"a 	c #231F00",
"b 	c #887700",
"c 	c #F5E700",
"d 	c #FDFD00",
"e 	c #C2BE00",
"f 	c #F1F100",
"g 	c #949400",
"h 	c #0C0C00",
"i 	c #0D0C00",
"j 	c #616000",
"k 	c #6D6900",
"l 	c #D5D200",
"m 	c #EBEB00",
"n 	c #464600",
"o 	c #0C0B00",
"p 	c #AD9B00",
"q 	c #5A5A00",
"r 	c #0B0B00",
"s 	c #111000",
"t 	c #A89000",
"u 	c #FFEE00",
"v 	c #F7F700",
"w 	c #232300",
"x 	c #1A1700",
"y 	c #857200",
"z 	c #FFDA00",
"A 	c #FFF600",
"B 	c #ADAD00",
"C 	c #D3D300",
"D 	c #151300",
"E 	c #594C00",
"F 	c #BABA00",
"G 	c #000000",
"H 	c #191900",
"I 	c #E5E500",
"J 	c #2A2A00",
"K 	c #D9BA00",
"L 	c #FFE000",
"M 	c #5E5E00",
"N 	c #3F3F00",
"O 	c #787800",
"P 	c #1D1D00",
"Q 	c #3B3600",
"R 	c #FFE600",
"S 	c #686800",
"T 	c #BDBD00",
"U 	c #090800",
"V 	c #746400",
"W 	c #FFE800",
"X 	c #7A7A00",
"Y 	c #090900",
"Z 	c #0A0A00",
"` 	c #837000",
" .	c #FFEB00",
"..	c #A4A400",
"+.	c #A6A600",
"@.	c #111100",
"#.	c #877700",
"$.	c #FFEA00",
"%.	c #F4F400",
"&.	c #CDCD00",
"*.	c #101000",
"=.	c #4A4200",
"-.	c #FFE300",
";.	c #8F8F00",
">.	c #434300",
",.	c #616100",
"'.	c #828200",
").	c #C8C800",
"!.	c #EEEE00",
"~.	c #757500",
"{.	c #888800",
"].	c #020200",
"^.	c #0C0A00",
"/.	c #FAD600",
"(.	c #FFDD00",
"_.	c #E3E300",
":.	c #AAAA00",
"<.	c #6E6E00",
"[.	c #171700",
"}.	c #ACAC00",
"|.	c #393600",
"1.	c #1D1A00",
"2.	c #252300",
"3.	c #585800",
"4.	c #DCDC00",
"5.	c #0E0E00",
"6.	c #140C00",
"7.	c #050300",
"8.	c #1F1300",
"9.	c #150C00",
"0.	c #AA9200",
"a.	c #FFF200",
"b.	c #FEFE00",
"c.	c #9B9B00",
"d.	c #1C1C00",
"e.	c #D9D900",
"f.	c #181500",
"g.	c #442900",
"h.	c #A25E00",
"i.	c #D28100",
"j.	c #BE7400",
"k.	c #614000",
"l.	c #636300",
"m.	c #010100",
"n.	c #120C00",
"o.	c #503100",
"p.	c #975E00",
"q.	c #E28C00",
"r.	c #FF9D00",
"s.	c #7C4400",
"t.	c #020000",
"u.	c #EFCD00",
"v.	c #4A4A00",
"w.	c #B3B300",
"x.	c #555500",
"y.	c #6A3F00",
"z.	c #FD9900",
"A.	c #D38300",
"B.	c #F29500",
"C.	c #EF9300",
"D.	c #D58400",
"E.	c #614200",
"F.	c #7E5200",
"G.	c #B46F00",
"H.	c #EC9200",
"I.	c #FE9B00",
"J.	c #804600",
"K.	c #1A1800",
"L.	c #5E5000",
"M.	c #FFE500",
"N.	c #C9C700",
"O.	c #F2F200",
"P.	c #AFAF00",
"Q.	c #110D00",
"R.	c #D97900",
"S.	c #FB9500",
"T.	c #FE9900",
"U.	c #F98F00",
"V.	c #331C00",
"W.	c #100D00",
"X.	c #B39A00",
"Y.	c #FFE200",
"Z.	c #262300",
"`.	c #9F5A00",
" +	c #FA9200",
".+	c #784200",
"++	c #0D0700",
"@+	c #221E00",
"#+	c #4C4100",
"$+	c #271900",
"%+	c #F88E00",
"&+	c #D37600",
"*+	c #552F00",
"=+	c #0C0600",
"-+	c #867300",
";+	c #999900",
">+	c #342000",
",+	c #F68600",
"'+	c #FA9100",
")+	c #FA9300",
"!+	c #FB9400",
"~+	c #FD9700",
"{+	c #FA9000",
"]+	c #D27800",
"^+	c #945100",
"/+	c #522D00",
"(+	c #0B0600",
"_+	c #150E00",
":+	c #8F7A00",
"<+	c #FFDB00",
"[+	c #282100",
"}+	c #2F1B00",
"|+	c #7C4300",
"1+	c #985300",
"2+	c #AE5E00",
"3+	c #A45A00",
"4+	c #935000",
"5+	c #814600",
"6+	c #6F3C00",
"7+	c #5E3300",
"8+	c #422400",
"9+	c #0E0800",
"0+	c #090500",
"a+	c #281600",
"b+	c #1F1100",
"c+	c #413A00",
"d+	c #F8F400",
"e+	c #9F9F00",
"f+	c #5D5600",
"g+	c #473900",
"h+	c #362900",
"i+	c #3D2F00",
"j+	c #4E3E00",
"k+	c #6F6500",
"l+	c #6B6800",
"m+	c #151500",
"n+	c #0B0900",
"o+	c #413800",
"p+	c #DDBD00",
"q+	c #FFDF00",
"r+	c #FFE400",
"s+	c #FBDC00",
"t+	c #978200",
"u+	c #100E00",
"v+	c #332B00",
"w+	c #584C00",
"x+	c #998300",
"y+	c #DBBC00",
"z+	c #EBC900",
"A+	c #826F00",
"B+	c #161300",
"C+	c #1E1A00",
"D+	c #262100",
"E+	c #564A00",
"F+	c #675900",
"G+	c #6D5E00",
"H+	c #6C5D00",
"I+	c #473D00",
"J+	c #1D1900",
"K+	c #050400",
"L+	c #141100",
"M+	c #242200",
"N+	c #1A1600",
"O+	c #252000",
"                                                                ",
"                                                                ",
"                . +                                             ",
"    @ # $ % & * = - ;                                           ",
"      > , ' ) ! ~ { ] ^ / ( _ :                                 ",
"        < [ } ) | 1 2 3 4 5 6 7 8 9 0                           ",
"          a b c d e d ) ) ) ) ) ) f g h 0                       ",
"          i j k l ) ) ) ) ) ) ) ) ) ) m n 0                     ",
"        o p ) ) ) ) ) ) ) ) ) ) ) ) ) ) ) q r                   ",
"      s t u ) ) ) ) ) ) ) ) ) ) ) ) ) ) ) v w                   ",
"    x y z A ) ) ) ) ) ) ) ) ) ) ) ) ) ) B 3 C /                 ",
"  D E z z 2 ) ) ) ) ) ) ) ) ) ) ) ) ) F G H I J                 ",
"  ( K z L ) ) ) ) ) ) ) ) ) ) ) ) ) ) M G G N O P               ",
"  Q z z R ) ) ) ) ) ) ) ) ) ) ) ) ) ) S G G / T 0               ",
"U V z z W ) ) ) ) ) ) ) ) ) ) ) ) ) ) X   G G B Y               ",
"Z ` z z  .) ) ) ) ) ) ) ) ) ) ) ) ) ) ..  G G +.@.              ",
"( #.z z $.) ) ) ) ) ) ) ) ) ) ) ) ) ) %.  G G &.*.              ",
"  =.z z -.) ;.>.,.'...).!.) ) ) ) ) ) ) ~.; {.) @.          ].  ",
"  ^./.z (.) ) _.:.<.0 [.}.) f '.|.1.2.3.4.) ) ) 5.    6.7.8.9.  ",
"  x 0.z z a.) b.c.d.q !.) e.f.g.h.i.j.k.^.l.3.. m.n.o.p.q.r.s.t.",
"    f.u.z L ) v.d.w.) ) ) x.y.z.A.r.B.C.D.E.F.G.H.r.r.r.r.I.J.G ",
"    K.L.z z M.N.O.) ) ) P.Q.R.S.S.T.r.r.r.r.r.r.r.r.r.r.r.U.V.  ",
"      W.X.z z Y.) ) ) b.Z.`.r.r.r.r.r.r.r.r.r.r.r.r.r.r. +.+++  ",
"      @+#+z z z ' ) ) }.$+%+r.r.r.r.r.r.r.r.r.r.r.r.S.&+*+=+    ",
"      ].-+z z z u ) ) ;+>+,+U.'+)+!+S.~+~+!+ +{+]+^+/+(+_+      ",
"      G :+z z z <+a.) v [+}+|+1+2+3+4+5+6+7+8+9+0+a+b+          ",
"        c+z z z z z -.a.d+e+f+g+h+i+j+L.k+l+m+*.                ",
"        n+o+p+z z z z z z q+Y.r+M.R r+s+t+u+v+                  ",
"          h n+w+x+y+z z z z z z z z+A+B+C+                      ",
"                D+^.x E+F+G+H+I+J+K+L+                          ",
"                        M+N+O+                                  ",
"                                                                "};
