<?xml version="1.0" encoding="UTF-8" standalone="no"?>
<!-- Generator: Adobe Illustrator 13.0.0, SVG Export Plug-In . SVG Version: 6.00 Build 14948)  -->
<svg
   xmlns:dc="http://purl.org/dc/elements/1.1/"
   xmlns:cc="http://creativecommons.org/ns#"
   xmlns:rdf="http://www.w3.org/1999/02/22-rdf-syntax-ns#"
   xmlns:svg="http://www.w3.org/2000/svg"
   xmlns="http://www.w3.org/2000/svg"
   xmlns:sodipodi="http://sodipodi.sourceforge.net/DTD/sodipodi-0.dtd"
   xmlns:inkscape="http://www.inkscape.org/namespaces/inkscape"
   version="1.0"
   x="0px"
   y="0px"
   width="22"
   height="22"
   viewBox="0 0 1024 768"
   enable-background="new 0 0 1024 768"
   xml:space="preserve"
   id="svg2913"
   sodipodi:version="0.32"
   inkscape:version="0.46"
   sodipodi:docname="pidgin.svg"
   inkscape:output_extension="org.inkscape.output.svg.inkscape"><metadata
   id="metadata3044"><rdf:RDF><cc:Work
       rdf:about=""><dc:format>image/svg+xml</dc:format><dc:type
         rdf:resource="http://purl.org/dc/dcmitype/StillImage" /></cc:Work></rdf:RDF></metadata><defs
   id="defs3042"><inkscape:perspective
   sodipodi:type="inkscape:persp3d"
   inkscape:vp_x="0 : 384 : 1"
   inkscape:vp_y="0 : 1000 : 0"
   inkscape:vp_z="1024 : 384 : 1"
   inkscape:persp3d-origin="512 : 256 : 1"
   id="perspective3046" />
	
	
	
	
	
	
	
	
	
	
	
	
	
	
</defs><sodipodi:namedview
   inkscape:window-height="949"
   inkscape:window-width="1280"
   inkscape:pageshadow="2"
   inkscape:pageopacity="0.0"
   guidetolerance="10.0"
   gridtolerance="10.0"
   objecttolerance="10.0"
   borderopacity="1.0"
   bordercolor="#666666"
   pagecolor="#ffffff"
   id="base"
   showgrid="false"
   inkscape:zoom="4.21875"
   inkscape:cx="65.787749"
   inkscape:cy="53.207338"
   inkscape:window-x="0"
   inkscape:window-y="25"
   inkscape:current-layer="svg2913" />

<g
   id="g3400"
   transform="matrix(1.0184751,0,0,1.0184751,-42.785175,2.7301496)"><path
     sodipodi:nodetypes="cccccccccccccccccccccccccccc"
     d="M 86.162004,467.74488 L 71.407976,412.20065 L 71.407976,330.79418 L 100.7143,242.87521 L 139.7894,177.75003 L 175.60824,135.41868 L 237.47714,93.087327 L 178.86449,50.755971 L 113.73933,-27.39424 L 162.5832,-40.419272 L 279.80851,-17.625465 L 296.0898,-7.8566911 L 302.60232,-69.725595 L 377.49626,-30.650498 L 416.57135,27.962164 L 501.23408,18.19339 L 585.89679,37.730939 L 703.1221,102.8561 L 761.73475,171.23752 L 804.0661,259.1565 C 804.0661,259.1565 836.62868,461.04452 810.57862,483.83833 L 784.52855,685.72637 L 761.73475,715.03269 L 427.22365,820.71846 L 180.42282,716.89386 L 173.53835,605.64541 C 173.53835,605.64541 107.22682,490.35085 110.48307,513.14467 L 86.162004,467.74488 z"
     id="path2916"
     style="fill:#ffff2c" /><path
     d="M 478.44027,532.68222 C 478.44027,532.68222 478.44027,477.32581 576.12802,457.78827 C 576.12802,457.78827 677.07204,457.78827 719.40339,509.88841 L 1002.6979,434.99446 C 1002.6979,434.99446 1103.6418,636.88248 758.47849,685.72637 C 758.47849,685.72637 413.3151,754.10779 419.82761,620.60119"
     id="path2918"
     style="fill:#ffaf2e" /><path
     d=""
     id="path2922"
     style="fill:#e8e203" /><path
     d="M 237.47714,93.087327 C 237.47714,93.087327 84.433008,467.55704 292.83355,581.52609 C 292.83355,581.52609 253.75843,793.18288 761.73475,715.03269 L 686.84081,770.38908 L 602.17808,793.18288 L 533.79666,822.48921 L 377.49626,812.72043 L 263.52722,783.41411 L 175.60824,721.54521 L 165.83946,617.34493 L 152.81443,578.26983 L 87.689266,474.06956 L 71.407976,330.79418 L 107.22682,216.82515"
     id="path2926"
     style="fill:#ffdd12" /><path
     d="M 351.44619,71.377859 C 351.44619,71.377859 272.21166,37.730939 308.0305,-58.872482 C 308.0305,-58.872482 387.26503,88.74673 351.44619,71.377859 z"
     id="path2928"
     style="fill:#ffdd12" /><path
     d="M 315.62735,108.28427 C 315.62735,108.28427 175.60824,96.343585 123.50811,-21.966046 C 123.50811,-21.966046 178.86449,-14.369207 315.62735,108.28427 z"
     id="path2930"
     style="fill:#ffdd12" /><path
     d="M 616.29071,529.42596 C 616.29071,529.42596 537.05292,522.91344 464.3309,558.73228 L 435.02458,603.23557 L 435.02458,653.16379 L 440.45276,678.12951 L 526.19981,699.83898 L 700.95342,690.0702 L 864.85069,665.10448 L 982.07598,594.55112 L 1008.1261,547.87917 L 1016.8104,491.43844 L 997.27295,450.19141 L 984.24791,449.10709 C 984.24791,449.10383 1062.9386,706.89204 483.32465,638.51062 C 483.32465,638.51062 437.19324,602.14798 492.54963,559.81662"
     id="path2932"
     style="fill:#f7931c" /><path
     d="M 592.40931,464.30078 C 592.40931,464.30078 471.92776,467.55704 481.69653,545.70725 L 481.69653,561.98854 L 509.37472,547.33537 C 509.37472,547.33537 478.44027,519.65719 592.40931,464.30078 z"
     id="path2934"
     style="fill:#f7931c" /><g
     transform="matrix(3.2562584,0,0,3.2562584,-1314.1299,-142.99142)"
     id="Layer_1">
	<path
   id="path2945"
   d="M 605.166,150.5 C 603.57,141.646 601.971,132.391 603.52,123.413 C 604.907,115.373 611.906,102.708 621.891,107.453 C 634.859,113.614 640.919,134.573 642.164,147.671 C 643.266,159.26 640.475,173.428 627.134,175.984 C 623.018,176.773 615.422,177.742 612.791,173.757 C 608.338,167.016 606.571,158.299 605.166,150.5" />
	<path
   style="fill:none;stroke:#000000;stroke-width:10"
   id="path2947"
   d="M 549.167,207.833 C 549.167,207.833 548.166,192.834 572.5,186.167 C 596.834,179.5 611.868,188.789 624.167,198.5 C 630.5,203.5 707.834,176.834 711.167,178.167 C 714.5,179.5 753.752,256.336 577.167,257.833 C 498.5,258.5 549.167,207.833 549.167,207.833 z" />
	<g
   id="g2949">
		<g
   id="g2951">
			<path
   style="fill:none"
   id="path2953"
   d="M 514.5,67.542 C 514.5,67.542 484.5,55.745 496.5,22.5 C 496.5,22.5 535.5,42.876 534.5,62.18" />
			<g
   id="g2955">
				<g
   id="g2957">
					<path
   style="fill:#202020"
   id="path2959"
   d="M 514.5,67.542 C 510.861,63.087 509.051,60.238 505.156,56.278 C 502.953,54.269 497.51,46.711 497.621,38.268 C 497.502,34.149 498.246,30.134 499.097,27.23 C 499.264,26.497 499.528,25.844 499.704,25.26 L 499.969,24.447 L 500.086,24.086 L 500.141,23.918 L 500.167,23.837 L 500.17,23.827 C 501.362,23.36 489.796,27.866 494.694,25.96 L 494.698,25.962 L 494.714,25.97 L 494.746,25.986 C 495.504,26.389 495.97,26.651 495.964,26.647 C 495.934,26.63 503.218,30.611 510.503,35.969 C 517.933,41.196 524.598,48.173 526.24,50.699 C 529.424,55.356 531.97,57 534.5,62.178 C 537.127,56.905 536.384,51.566 532.531,46.085 C 530.509,42.892 522.985,35.114 515.133,29.628 C 507.396,23.961 499.764,19.835 499.747,19.823 C 499.741,19.821 499.286,19.561 498.388,19.08 L 498.341,19.055 L 498.317,19.043 L 498.311,19.04 C 503.205,17.131 491.637,21.637 492.828,21.176 L 492.824,21.187 L 492.793,21.28 L 492.729,21.473 L 492.591,21.888 L 492.281,22.826 C 492.073,23.503 491.778,24.243 491.571,25.108 C 490.579,28.483 489.635,33.297 489.775,38.501 C 489.588,49.279 496.75,59.328 499.494,61.642 C 504.404,66.501 508.732,67.599 514.5,67.542 z" />
				</g>
			</g>
		</g>
	</g>
	<polyline
   id="polyline2961"
   points="478.128,170.063 479.756,177.335 516.076,184.542 484.748,201.821 490.48,211.598 541.175,178.191  " />
	<path
   id="path2963"
   d="M 597.834,199.833 C 597.834,199.833 596.501,195.166 603.834,195.833 C 611.167,196.5 597.834,199.833 597.834,199.833 z" />
	<path
   id="path2965"
   d="M 573.079,207.425 C 573.079,207.425 571.525,202.827 578.881,203.143 C 586.237,203.459 573.079,207.425 573.079,207.425 z" />
	<g
   id="g2967">
		<g
   id="g2969">
			<path
   style="fill:none"
   id="path2971"
   d="M 493.167,41.089 C 493.167,41.089 470.5,29.649 439.834,35.369 C 439.834,35.369 457.834,76.122 501.834,77.552" />
			<g
   id="g2973">
				<g
   id="g2975">
					<path
   style="fill:#202020"
   id="path2977"
   d="M 493.167,41.089 C 488.463,36.258 484.434,33.556 476.854,31.869 C 472.772,30.882 460.112,29.011 448.507,30.261 C 445.608,30.474 442.805,30.925 440.216,31.346 L 439.255,31.497 L 439.136,31.516 L 439.121,31.518 C 439.736,30.335 433.695,41.811 436.257,36.963 L 436.274,37 L 436.308,37.075 L 436.424,37.324 L 436.645,37.783 L 437.508,39.47 C 438.075,40.542 438.637,41.516 439.159,42.408 C 441.277,45.95 442.854,48.079 442.846,48.086 C 442.855,48.042 448.747,57.007 457.821,64.539 C 466.703,72.347 478.859,77.383 483.017,78.353 C 490.642,80.518 495.509,79.737 501.834,77.551 C 495.701,74.752 492.038,72.909 485.307,70.896 C 481.632,69.973 470.894,65.542 462.868,58.526 C 454.676,51.755 449.228,43.553 449.23,43.602 C 449.239,43.599 447.801,41.64 445.893,38.431 C 445.425,37.627 444.92,36.747 444.425,35.805 L 443.69,34.361 L 443.518,34.002 L 443.44,33.835 L 443.426,33.805 L 443.42,33.79 C 445.979,28.933 439.928,40.398 440.558,39.217 L 440.572,39.215 L 440.681,39.198 L 441.567,39.062 C 443.952,38.682 446.531,38.267 449.199,38.078 C 459.876,36.94 471.534,38.665 475.299,39.511 C 482.318,40.972 486.472,40.836 493.167,41.089 z" />
				</g>
			</g>
		</g>
	</g>
	<path
   style="fill:none;stroke:#000000;stroke-width:10"
   id="path2979"
   d="M 531.834,49.668 C 531.834,49.668 673.167,35.73 653.833,195.167" />
	<path
   style="fill:none;stroke:#000000;stroke-width:10"
   id="path2981"
   d="M 476.5,73.262 C 476.5,73.262 373.833,132.604 457.167,229.838 C 457.167,229.838 447.5,249.5 459.167,267.016 C 469.417,282.404 572.5,326.044 645.167,253.833" />
	<g
   id="g2983">
		<g
   id="g2985">
			
			<g
   id="g2989">
				<g
   id="g2991">
					
				</g>
			</g>
		</g>
	</g>
	<path
   d=""
   style="fill:none;stroke:#000000;stroke-width:5"
   id="path2995" />
	<path
   d=""
   style="fill:none;stroke:#000000;stroke-width:5"
   id="path2997" />
	
	
	<path
   style="fill:#ffffff"
   id="path3003"
   d="M 604.625,147.125 C 604.625,147.125 606,167.25 617.5,166.75 C 629,166.25 627,126.625 608.375,139.5 C 608.375,139.5 604.75,141.625 604.625,147.125 z" />
	<g
   id="g3005">
		<g
   id="g3007">
			
			<g
   id="g3011">
				<g
   id="g3013">
					
				</g>
			</g>
		</g>
	</g>
	<g
   id="g3017">
		<g
   id="g3019">
			
			<g
   id="g3023">
				<g
   id="g3025">
					
				</g>
			</g>
		</g>
	</g>
	<g
   id="g3029">
		<g
   id="g3031">
			
			<g
   id="g3035">
				<g
   id="g3037">
					
				</g>
			</g>
		</g>
	</g>
</g></g>
<g
   inkscape:groupmode="layer"
   id="layer1"
   inkscape:label="Ducky" /></svg>